<svg width="22" height="17" viewBox="0 0 22 17" fill="none" xmlns="http://www.w3.org/2000/svg">
<path fill-rule="evenodd" clip-rule="evenodd" d="M8.877 0.24543C5.75792 1.13515 3.43106 3.75344 2.926 6.94173C2.81857 7.61931 2.56862 8.0989 2.14991 8.43039C1.00662 9.33494 0 11.0075 0 12.0027C0 13.2809 0.345681 13.8012 1.55123 14.3377C2.31234 14.6763 3.02336 14.7879 4.1793 14.7502C5.56717 14.7048 5.96574 14.7983 7.38264 15.4999C8.844 16.2236 9.19413 16.3008 10.9951 16.2961C12.647 16.2919 13.2152 16.1855 14.3047 15.6757C16.7418 14.5357 18.3857 12.5112 18.957 9.94684C19.1414 9.11905 19.5025 8.48172 20.2311 7.69819C21.5277 6.30346 22 5.37513 22 4.22008C22 2.52375 20.0715 1.43651 17.3835 1.61756C16.4944 1.67759 15.9523 1.53562 14.7316 0.923488C12.9262 0.0182333 10.6129 -0.249694 8.877 0.24543ZM13.5745 2.32434C14.5684 2.76178 16.1489 4.06233 16.1489 4.44303C16.1489 4.82844 14.3084 6.32771 12.6968 7.25533C9.95196 8.83511 5.73521 10.1053 4.92215 9.59698C4.39883 9.26996 4.51328 7.09759 5.12787 5.69815C6.63066 2.2756 10.2127 0.844852 13.5745 2.32434ZM19.9521 3.74685C20.4481 4.00183 20.4621 4.23962 20.031 5.07824C18.4491 8.15564 10.2213 12.4615 4.91489 12.9889C2.16185 13.2625 1.18519 12.6212 2.09632 11.1379L2.63064 10.2685L3.17291 10.7812C3.89845 11.4668 5.34834 11.5963 7.40604 11.1593C10.9614 10.4043 15.1795 8.23004 17.0512 6.18739C17.8514 5.31415 18.0213 4.96359 18.0213 4.18735C18.0213 3.2529 18.0267 3.24725 18.7819 3.39134C19.2001 3.47115 19.7267 3.63101 19.9521 3.74685ZM16.6423 11.1805C15.3918 13.6211 12.4176 15.0718 9.81504 14.5103C9.15481 14.3679 8.70357 14.1786 8.81264 14.0898C8.92147 14.0011 9.78672 13.6677 10.7351 13.3489C11.6834 13.0304 13.4738 12.224 14.7138 11.5572C15.9537 10.8902 16.9966 10.3339 17.0313 10.3212C17.0661 10.3082 16.8911 10.6951 16.6423 11.1805Z" fill="white" fill-opacity="0.8"/>
<path d="M3.12354 6.97302L3.12353 6.97304C3.01057 7.68558 2.74233 8.21646 2.27406 8.5872L2.27401 8.58724C1.72449 9.02201 1.2021 9.64677 0.81758 10.2857C0.429511 10.9305 0.2 11.5595 0.2 12.0027C0.2 12.6277 0.285502 13.0296 0.490124 13.3377C0.695477 13.6468 1.04091 13.8917 1.63252 14.155C2.35746 14.4775 3.036 14.5874 4.17275 14.5503L3.12354 6.97302ZM3.12354 6.97302C3.61635 3.86207 5.88715 1.30626 8.93186 0.437759C10.6137 -0.0419603 12.8756 0.216587 14.6419 1.10227C15.2552 1.4098 15.7111 1.60609 16.1313 1.71607C16.5564 1.82735 16.9367 1.84818 17.397 1.8171C18.7142 1.72838 19.8266 1.95214 20.6015 2.38902C21.3721 2.82345 21.8 3.46015 21.8 4.22008C21.8 5.30049 21.3678 6.18169 20.0846 7.56199C19.3381 8.36483 18.9557 9.0329 18.7618 9.90335C18.2043 12.4055 16.6024 14.3801 14.2199 15.4946L14.2199 15.4946C13.6832 15.7457 13.2858 15.8923 12.8239 15.9789C12.3583 16.0662 11.8186 16.094 10.9946 16.0961C10.0925 16.0985 9.57555 16.0797 9.10457 15.9758C8.63545 15.8724 8.20195 15.6824 7.4714 15.3206L7.47139 15.3206M3.12354 6.97302L7.47139 15.3206M7.47139 15.3206C6.76277 14.9697 6.29061 14.7613 5.81567 14.6502M7.47139 15.3206L5.81567 14.6502M10.6713 13.1593L10.6714 13.1593C11.6057 12.8455 13.3854 12.0445 14.6191 11.3811C15.2392 11.0475 15.8101 10.7416 16.2304 10.5174C16.4405 10.4053 16.6132 10.3136 16.7356 10.249C16.7968 10.2167 16.8457 10.1911 16.8807 10.173C16.8981 10.164 16.9125 10.1566 16.9235 10.1511L16.9248 10.1504C16.9309 10.1473 16.9474 10.139 16.9617 10.1337C16.9619 10.1336 16.9621 10.1335 16.9624 10.1334L17.0313 10.3212L10.6713 13.1593ZM10.6713 13.1593C10.1949 13.3195 9.73875 13.4835 9.38712 13.619C9.2115 13.6867 9.06042 13.7478 8.94534 13.7982C8.88793 13.8234 8.8377 13.8466 8.79708 13.8672C8.76116 13.8855 8.71824 13.9087 8.68623 13.9348L10.6713 13.1593ZM5.81567 14.6502C5.33837 14.5384 4.86961 14.5275 4.17278 14.5503L5.81567 14.6502ZM12.7966 7.42867L12.6968 7.25533L12.7966 7.42867C13.6126 6.959 14.4844 6.34601 15.1535 5.80091C15.4878 5.52861 15.7755 5.26997 15.9815 5.05197C16.0842 4.94335 16.1707 4.84051 16.2328 4.74792C16.2884 4.66506 16.3489 4.55585 16.3489 4.44303C16.3489 4.33691 16.2983 4.23469 16.2491 4.15526C16.1954 4.06861 16.1213 3.97511 16.0353 3.87927C15.8626 3.68695 15.6258 3.46798 15.3615 3.25053C14.835 2.81723 14.1754 2.37029 13.655 2.14128C10.1891 0.615948 6.49063 2.09704 4.94475 5.61774C4.62595 6.34365 4.4396 7.26108 4.39857 8.03919C4.37804 8.42844 4.39334 8.79205 4.45083 9.08512C4.47957 9.23163 4.52006 9.36687 4.57591 9.48092C4.63114 9.59371 4.70788 9.69891 4.81613 9.76657C4.96083 9.85703 5.15643 9.89536 5.36618 9.90681C5.58128 9.91854 5.83664 9.90307 6.1199 9.86601C6.68694 9.79183 7.38729 9.62823 8.14274 9.40069C9.65367 8.9456 11.4086 8.22748 12.7966 7.42867ZM20.0436 3.56898L20.0436 3.56897C19.7935 3.44044 19.2454 3.27618 18.8194 3.19488L18.7819 3.39134L18.8194 3.19488L18.8177 3.19456C18.6353 3.15976 18.4777 3.1297 18.354 3.12375C18.2307 3.11782 18.0834 3.13201 17.9738 3.24672C17.8749 3.35023 17.8474 3.49663 17.8348 3.6296C17.8214 3.77092 17.8213 3.9576 17.8213 4.18735C17.8213 4.55879 17.7808 4.80711 17.6563 5.06372C17.5277 5.32903 17.303 5.61649 16.9037 6.05227L17.0407 6.1778L16.9037 6.05227C15.9902 7.04926 14.4907 8.09061 12.7684 8.97845C11.0484 9.86506 9.12183 10.5905 7.3645 10.9637C6.34704 11.1798 5.4914 11.2531 4.80771 11.192C4.12286 11.1309 3.62869 10.9367 3.31033 10.6359C3.31031 10.6359 3.3103 10.6359 3.31028 10.6359L2.76805 10.1231L2.58915 9.95396L2.46024 10.1637L1.92592 11.0332L1.9259 11.0332C1.68939 11.4183 1.55744 11.7759 1.56525 12.0962C1.57344 12.432 1.73466 12.7009 2.02176 12.8894C2.29817 13.0709 2.68721 13.1766 3.16571 13.2228C3.64762 13.2693 4.23885 13.2571 4.93467 13.1879C7.62266 12.9208 11.0318 11.7007 13.9624 10.167C15.4295 9.39925 16.783 8.54965 17.8714 7.69576C18.9556 6.84521 19.7936 5.97758 20.2089 5.16968C20.3179 4.95765 20.4026 4.77631 20.4586 4.61961C20.5142 4.46423 20.547 4.3186 20.5389 4.18186C20.5206 3.87386 20.3059 3.70386 20.0436 3.56898ZM8.93888 14.2449L8.93904 14.2448L8.93888 14.2449Z" stroke="#2E2E2F" stroke-opacity="0.8" stroke-width="0.4"/>
</svg>
